<?xml version="1.0" encoding="utf-8"?>
<!-- Generator: Adobe Illustrator 19.2.1, SVG Export Plug-In . SVG Version: 6.00 Build 0)  -->
<svg version="1.1" id="Layer_1" xmlns="http://www.w3.org/2000/svg" xmlns:xlink="http://www.w3.org/1999/xlink" x="0px" y="0px"
	 viewBox="0 0 133.5 263.9" style="enable-background:new 0 0 133.5 263.9;" xml:space="preserve">
<style type="text/css">
	.st0{clip-path:url(#SVGID_2_);fill:#61C4DD;}
	.st1{clip-path:url(#SVGID_4_);fill:#61C4DD;}
</style>
<g>
	<defs>
		<polygon id="SVGID_1_" points="476.3,15.2 476.3,132.1 499.6,231.2 541.4,231.2 544.1,170 557.4,161.3 557.4,15.2 		"/>
	</defs>
	<clipPath id="SVGID_2_">
		<use xlink:href="#SVGID_1_"  style="overflow:visible;"/>
	</clipPath>
	<path class="st0" d="M614,219.8h-1.8h-9.9v-8.7v-19.4l-3.3-3.2v-5.4h-10.9v-6.8h-5.4v-6.1l-21.1-4l-7.9,2l-9.5,2.4v8.3l-0.2,53.2
		l-2.6,0c-0.8-5-2-12-3.4-20.2c1.4,0,2.4,0,2.4,0l-1-2.2l1.2-1.3l-3.4-1.5c-5.1-30.9-11.9-73.9-12.1-83.4c0,0-0.4-25.2,4.2-44.5
		l1.2-4.4h7.4c0,0,9.9-2,7.5-3.9c-1-0.8-2.2-1.4-3.3-1.7c1.1-1.1,2.7-3,2.7-4.6c4,0.2,10.2,0.3,9.4-0.7c-1-1.2-4.1-2.4-8.1-3.4
		c0.6-0.9,1.2-2.3-0.5-2.8c-0.4-0.1-1.4-0.2-2.8-0.4c-0.1-0.8-0.4-1.6-1.7-2c-1.4-0.5-7.9-3.2-14.4-5.5v-7.5h-1.1
		c0.2-0.3,0.3-0.7,0.3-1c0-0.6-1.6-1.6-3.2-2.4c0.2-0.3,0.2-0.6,0.2-1c0-1.1-0.9-2.1-2.1-2.1h-1.7l-2.1-20.2l-2.1,20.2h-1.7
		c-1.1,0-2.1,0.9-2.1,2.1c0,0.3,0.1,0.7,0.2,1c-1.7,0.8-3.2,1.8-3.2,2.4c0,0.4,0.1,0.7,0.3,1h-1.1v7.5c-6.4,2.3-13,5-14.4,5.5
		c-1.2,0.4-1.6,1.2-1.7,2c-1.4,0.1-2.4,0.3-2.8,0.4c-1.7,0.5-1.1,1.9-0.5,2.8c-4,1-7.2,2.2-8.1,3.4c-0.9,1.1,5.4,0.9,9.4,0.7
		c0,1.6,1.6,3.5,2.7,4.6c-1,0.3-2.3,0.8-3.3,1.7c-2.4,2,7.5,3.9,7.5,3.9h10.8c0.5,4.3,1.5,10.8,3.2,18.2c2.9,13.1,1.6,30.5,1.6,30.5
		c0,4.4-5.4,49-9.4,81.2l-5.5,0.8l0.2,1.2l0.5,1.3l-0.7,1.1l4.7,1.6c-0.9,7.6-1.8,14.3-2.4,19h-4.9v-15.1h-7.3v-10.8h-7.3v-25V156
		v-3.3l-5.8-5.8h-4.4l-3.6-3.2V121h-10.5v-8.6h-9.8v9.7h-4.1h-5.3v8.9v75.8H428c0,0-0.9-13.5,0-14.4c0.9-0.9-7.3,0-7.3,0l-1.1-6.1
		h-6.9v14.1h-2.9v-65.2h-14.9v-5.4h-2.5v-8.3h-2.9V82.1h-5.1v-3.6l-10.2-8.6v-6.6v-0.8v-1.9h-2.2h-0.4h-2.2v9.4l-10.2,8.6v3.6h-5.1
		v39.3h-2.9v8.3h-2.5v97.2l-4.4-4.3v-33.1h-4v-5.8h-3.6v5.4h-2.5V139h-2.5v-38.2H295c0,0-1.1,22.7,0,22.7h-10.5v23.8h-8.4V34.6h-4.7
		v-5h-3.6v-6.1h-3.3v5H250v4.7h-2.9v38.5h-4.4c0,0-1.1,5.4,0,5.4h-3.6v40.3h-5.5v6.8h-3.3v40l-4,7.6v26.7h-4.7v-11.9h-9.8V103
		l-9.4-9.7l2.2-2.5V75.6h-36.7v28.1h-6.5v33.9h-6.5h-8.7l-3.5,2.5v24.7l-4.5,4.5v46.8H133V183h-11.6v-19.9h-5.1V134l-2.5-2.5V116
		l-1.8-1.8l-2.4-2.3l-1.8-1.8v-4.1h-3.8l-4-7.2h-5.8h-1.5h-5.8l-4,7.2H79v4.1l-1.8,1.8l-2.4,2.3l-1.8,1.8v15.5l-2.5,2.5v30.6H60
		v-14.4h-6.5V118H38.7l-6-5.9v4.7h-1.8l-1.5-1.4h-4.4v1.8c0,0-11.1,0.6-12.3,0.1c0.6,2.9-0.1,50.6-0.1,49.6c0-1.1-4.4,4.3-4.4,4.3
		V64.8h-4c-1.5-4.3-13.4-8.3-13.4-8.3l-30.5-3.2v11.5h-6.7v94.5l-2.4,2.3h-14.5v-4.3h-8.7v4.7h-20v-3.2h-8.4v4.3h-4.7v-4.3h-4.7V156
		h-2.9v4h-2.9v-19.1v-8.6h-21.8v-4.7h-2.9v-4h-2.9v5.4h-15.3v4.7h-13.1v30.3h-15.3v-6.1h-4.4v6.1h-6.9v28.8l-4.2-4.1l-4.9-4.9v-4
		v-6.5h-39.2l-12.4,4.3l-2.9,2.9v6.1h-14v-22.1l-5.3-5.2v-6.5h-4.4c1.8,0,0-17.1,0-17.1h-5.6l-3.1-3.1h-3.3l-1.8,1.8H-316v22.3h-3.3
		v-4.3h-3.6l-4.4-3.6v7.9h-10.9V170h-7.6v-63h-7.3v-3.6h-7.3v4.3h-6.9V179h-4v14.4h-5.8v25.9l-4-47.3v-3.2h-13.1v-6.5h-18.5v6.8
		h-6.5l-6.5,5.4v18.9h-10.7l-6.7-41.7h-18.2v10.1h-10.9v7.9h-14.2V249H593.8H620v-22.3v-0.9L614,219.8z M532,205.2l-0.2,0l-3.6-1.4
		l-3.4-0.1c-0.2-8.5-0.5-18.1-0.8-28.4l4.2-0.5L532,205.2z M513.6,169.8l-0.4,0l1.2-19.6L513.6,169.8z M515.2,178l0.3,12.2l-1.7-0.3
		l0.3-12.3C514.1,177.6,514.5,175.7,515.2,178 M513.4,174.9l-1,28.3l-1.2,0l1.7-28.3L513.4,174.9z M512.1,211.2l-0.7,18.7l-1.8-0.1
		l1.1-18.6C511.1,211.2,511.6,211.2,512.1,211.2 M527.6,170.9l-3.8-0.3c-0.3-12.3-0.7-25.1-1-37.5L527.6,170.9z M526,74.3h3.5
		c-1.8,8.3-5.1,23-5.4,21.9C523.9,95,525.3,80.9,526,74.3 M524.1,74.3c-0.7,7.2-1.6,18.5-2,29.8c-0.3-12.5-0.4-23-0.4-29.8H524.1z
		 M513.3,201.8l0.5-10.2c0,0,1.2-1.2,1.5,0l0.3,10.4L513.3,201.8z M514.6,74.3h1c0.1,3.7,0,8.2-0.3,12.3c-0.3,4.1-0.6,6.2-0.9,7.2
		c-1.8-3.9-2.7-13.3-3.2-19.5H514.6z M509.3,74.3h0.9c0.6,6.3,1.6,15.9,2.9,20.6c-0.2,0-0.4,0-0.6,0C511.2,94.9,510,82.5,509.3,74.3
		 M512.9,133.8c0.7-3.3,0.7-0.2,0.7-0.2l-0.8,10.2l-1,0.4L512.9,133.8z M511.5,146.6l1.1-0.4l-0.8,10l-1.5,0.4L511.5,146.6z
		 M510,159.8l1.6-0.8l-0.8,10.1l-1.9,1L510,159.8z M508.5,173.6l1.1-0.6l0.9,0.6l-0.8,9.6l-2.4,0.6L508.5,173.6z M507.1,186l2.4-0.5
		l-0.9,11.9l-2.8,0.5L507.1,186z M505.5,200.4l2.9-0.6l-0.3,3.7l-3,0.5L505.5,200.4z M504.3,210.9c0.8,0,1.9,0.1,3.2,0.1l-1.5,18.5
		l-0.6-0.1h-3.1L504.3,210.9z M525.5,231.1c-0.1-3.8-0.3-10.6-0.6-19.3c2,0.1,3.3,0.1,3.5,0.1c0.3,0,2.2,0,4.4-0.1l2.6,20.1h0
		L525.5,231.1z"/>
</g>
<g>
	<defs>
		<polygon id="SVGID_3_" points="26.3,25.2 26.3,142.1 49.6,241.2 91.4,241.2 94.1,180 107.4,171.3 107.4,25.2 		"/>
	</defs>
	<clipPath id="SVGID_4_">
		<use xlink:href="#SVGID_3_"  style="overflow:visible;"/>
	</clipPath>
	<path class="st1" d="M164,229.8h-1.8h-9.9v-8.7v-19.4l-3.3-3.2v-5.4h-10.9v-6.8h-5.4v-6.1l-21.1-4l-7.9,2l-9.5,2.4v8.3L94.1,242
		l-2.6,0c-0.8-5-2-12-3.4-20.2c1.4,0,2.4,0,2.4,0l-1-2.2l1.2-1.3l-3.4-1.5c-5.1-30.9-11.9-73.9-12.1-83.4c0,0-0.4-25.2,4.2-44.5
		l1.2-4.4H88c0,0,9.9-2,7.5-3.9c-1-0.8-2.2-1.4-3.3-1.7c1.1-1.1,2.7-3,2.7-4.6c4,0.2,10.2,0.3,9.4-0.7c-1-1.2-4.1-2.4-8.1-3.4
		c0.6-0.9,1.2-2.3-0.5-2.8c-0.4-0.1-1.4-0.2-2.8-0.4c-0.1-0.8-0.4-1.6-1.7-2c-1.4-0.5-7.9-3.2-14.4-5.5v-7.5h-1.1
		c0.2-0.3,0.3-0.7,0.3-1c0-0.6-1.6-1.6-3.2-2.4c0.2-0.3,0.2-0.6,0.2-1c0-1.1-0.9-2.1-2.1-2.1h-1.7l-2.1-20.2l-2.1,20.2h-1.7
		c-1.1,0-2.1,0.9-2.1,2.1c0,0.3,0.1,0.7,0.2,1c-1.7,0.8-3.2,1.8-3.2,2.4c0,0.4,0.1,0.7,0.3,1h-1.1v7.5c-6.4,2.3-13,5-14.4,5.5
		c-1.2,0.4-1.6,1.2-1.7,2c-1.4,0.1-2.4,0.3-2.8,0.4c-1.7,0.5-1.1,1.9-0.5,2.8c-4,1-7.2,2.2-8.1,3.4c-0.9,1.1,5.4,0.9,9.4,0.7
		c0,1.6,1.6,3.5,2.7,4.6c-1,0.3-2.3,0.8-3.3,1.7c-2.4,2,7.5,3.9,7.5,3.9h10.8c0.5,4.3,1.5,10.8,3.2,18.2c2.9,13.1,1.6,30.5,1.6,30.5
		c0,4.4-5.4,49-9.4,81.2l-5.5,0.8l0.2,1.2l0.5,1.3l-0.7,1.1l4.7,1.6c-0.9,7.6-1.8,14.3-2.4,19h-4.9v-15.1h-7.3v-10.8h-7.3v-25V166
		v-3.3l-5.8-5.8h-4.4l-3.6-3.2V131H5.6v-8.6h-9.8v9.7h-4.1h-5.3v8.9v75.8H-22c0,0-0.9-13.5,0-14.4c0.9-0.9-7.3,0-7.3,0l-1.1-6.1
		h-6.9v14.1h-2.9v-65.2h-14.9v-5.4h-2.5v-8.3h-2.9V92.1h-5.1v-3.6l-10.2-8.6v-6.6v-0.8v-1.9h-2.2h-0.4h-2.2v9.4l-10.2,8.6v3.6h-5.1
		v39.3h-2.9v8.3h-2.5v97.2l-4.4-4.3v-33.1h-4v-5.8h-3.6v5.4h-2.5V149h-2.5v-38.2H-155c0,0-1.1,22.7,0,22.7h-10.5v23.8h-8.4V44.6
		h-4.7v-5h-3.6v-6.1h-3.3v5H-200v4.7h-2.9v38.5h-4.4c0,0-1.1,5.4,0,5.4h-3.6v40.3h-5.5v6.8h-3.3v40l-4,7.6v26.7h-4.7v-11.9h-9.8V113
		l-9.4-9.7l2.2-2.5V85.6h-36.7v28.1h-6.5v33.9h-6.5h-8.7l-3.5,2.5v24.7l-4.5,4.5v46.8h-5.1V193h-11.6v-19.9h-5.1V144l-2.5-2.5V126
		l-1.8-1.8l-2.4-2.3l-1.8-1.8v-4.1h-3.8l-4-7.2h-5.8h-1.5h-5.8l-4,7.2h-3.8v4.1l-1.8,1.8l-2.4,2.3l-1.8,1.8v15.5l-2.5,2.5v30.6H-390
		v-14.4h-6.5V128h-14.7l-6-5.9v4.7h-1.8l-1.5-1.4h-4.4v1.8c0,0-11.1,0.6-12.3,0.1c0.6,2.9-0.1,50.6-0.1,49.6c0-1.1-4.4,4.3-4.4,4.3
		V74.8h-4c-1.5-4.3-13.4-8.3-13.4-8.3l-30.5-3.2v11.5h-6.7v94.5l-2.4,2.3h-14.5v-4.3h-8.7v4.7h-20v-3.2h-8.4v4.3h-4.7v-4.3h-4.7V166
		h-2.9v4h-2.9v-19.1v-8.6h-21.8v-4.7h-2.9v-4h-2.9v5.4h-15.3v4.7h-13.1v30.3h-15.3v-6.1h-4.4v6.1h-6.9v28.8l-4.2-4.1l-4.9-4.9v-4
		v-6.5h-39.2l-12.4,4.3l-2.9,2.9v6.1h-14v-22.1l-5.3-5.2v-6.5h-4.4c1.8,0,0-17.1,0-17.1h-5.6l-3.1-3.1h-3.3l-1.8,1.8H-766v22.3h-3.3
		v-4.3h-3.6l-4.4-3.6v7.9h-10.9V180h-7.6v-63h-7.3v-3.6h-7.3v4.3h-6.9V189h-4v14.4h-5.8v25.9l-4-47.3v-3.2h-13.1v-6.5h-18.5v6.8
		h-6.5l-6.5,5.4v18.9h-10.7l-6.7-41.7h-18.2v10.1h-10.9v7.9h-14.2V259H143.8H170v-22.3v-0.9L164,229.8z M82,215.2l-0.2,0l-3.6-1.4
		l-3.4-0.1c-0.2-8.5-0.5-18.1-0.8-28.4l4.2-0.5L82,215.2z M63.6,179.8l-0.4,0l1.2-19.6L63.6,179.8z M65.2,188l0.3,12.2l-1.7-0.3
		l0.3-12.3C64.1,187.6,64.5,185.7,65.2,188 M63.4,184.9l-1,28.3l-1.2,0l1.7-28.3L63.4,184.9z M62.1,221.2l-0.7,18.7l-1.8-0.1
		l1.1-18.6C61.1,221.2,61.6,221.2,62.1,221.2 M77.6,180.9l-3.8-0.3c-0.3-12.3-0.7-25.1-1-37.5L77.6,180.9z M76,84.3h3.5
		c-1.8,8.3-5.1,23-5.4,21.9C73.9,105,75.3,90.9,76,84.3 M74.1,84.3c-0.7,7.2-1.6,18.5-2,29.8c-0.3-12.5-0.4-23-0.4-29.8H74.1z
		 M63.3,211.8l0.5-10.2c0,0,1.2-1.2,1.5,0l0.3,10.4L63.3,211.8z M64.6,84.3h1c0.1,3.7,0,8.2-0.3,12.3c-0.3,4.1-0.6,6.2-0.9,7.2
		c-1.8-3.9-2.7-13.3-3.2-19.5H64.6z M59.3,84.3h0.9c0.6,6.3,1.6,15.9,2.9,20.6c-0.2,0-0.4,0-0.6,0C61.2,104.9,60,92.5,59.3,84.3
		 M62.9,143.8c0.7-3.3,0.7-0.2,0.7-0.2l-0.8,10.2l-1,0.4L62.9,143.8z M61.5,156.6l1.1-0.4l-0.8,10l-1.5,0.4L61.5,156.6z M60,169.8
		l1.6-0.8l-0.8,10.1l-1.9,1L60,169.8z M58.5,183.6l1.1-0.6l0.9,0.6l-0.8,9.6l-2.4,0.6L58.5,183.6z M57.1,196l2.4-0.5l-0.9,11.9
		l-2.8,0.5L57.1,196z M55.5,210.4l2.9-0.6l-0.3,3.7l-3,0.5L55.5,210.4z M54.3,220.9c0.8,0,1.9,0.1,3.2,0.1L56,239.5l-0.6-0.1h-3.1
		L54.3,220.9z M75.5,241.1c-0.1-3.8-0.3-10.6-0.6-19.3c2,0.1,3.3,0.1,3.5,0.1c0.3,0,2.2,0,4.4-0.1l2.6,20.1h0L75.5,241.1z"/>
</g>
</svg>
