<?xml version="1.0" encoding="utf-8"?>
<!-- Generator: Adobe Illustrator 19.2.1, SVG Export Plug-In . SVG Version: 6.00 Build 0)  -->
<svg version="1.1" id="Layer_1" xmlns="http://www.w3.org/2000/svg" xmlns:xlink="http://www.w3.org/1999/xlink" x="0px" y="0px"
	 viewBox="0 0 360 144" style="enable-background:new 0 0 360 144;" xml:space="preserve">
<style type="text/css">
	.st0{opacity:0.5;fill:#FFFFFF;}
	.st1{fill:#85BE95;}
	.st2{fill:#CF5940;}
	.st3{fill:#60A8D1;}
	.st4{fill:#FFFFFF;}
	.st5{fill:#45B64A;}
	.st6{fill:#EE1D54;}
	.st7{fill:#FEC566;}
	.st8{fill:#939598;}
	.st9{fill:none;stroke:#939598;stroke-width:2;}
</style>
<rect class="st0" width="360" height="144"/>
<path class="st1" d="M264.7,20.7c0,0,0-0.1-0.1-0.1C264.7,20.7,264.7,20.7,264.7,20.7"/>
<path class="st1" d="M265.1,21.1c0,0-0.1-0.1-0.1-0.1C265,21,265,21.1,265.1,21.1"/>
<path class="st1" d="M265.2,27.6c0,0,0,0.1,0,0.1C265.2,27.7,265.2,27.7,265.2,27.6"/>
<path class="st1" d="M266.7,23.9C266.7,23.9,266.7,23.9,266.7,23.9C266.7,23.9,266.7,23.9,266.7,23.9"/>
<path class="st1" d="M267,23.5C267,23.5,267,23.5,267,23.5C267,23.5,267,23.5,267,23.5"/>
<path class="st1" d="M265.4,28C265.4,28,265.4,28.1,265.4,28C265.4,28.1,265.4,28,265.4,28"/>
<polyline class="st1" points="266.9,23.7 266.8,23.7 266.9,23.7 "/>
<path class="st1" d="M271.7,20.5c0.1,0.1,0.1,0.2,0.2,0.3C271.8,20.7,271.7,20.6,271.7,20.5"/>
<path class="st1" d="M264.3,19.9C264.3,19.8,264.3,19.8,264.3,19.9C264.3,19.8,264.3,19.8,264.3,19.9"/>
<path class="st1" d="M271.3,19.9c0,0.1,0.1,0.1,0.1,0.2C271.4,20.1,271.3,20,271.3,19.9"/>
<path class="st1" d="M264.4,20.2c0,0,0,0.1,0.1,0.1C264.5,20.3,264.5,20.3,264.4,20.2"/>
<path class="st1" d="M264.2,19.4c0,0,0-0.1,0-0.1C264.2,19.4,264.2,19.4,264.2,19.4"/>
<path class="st1" d="M272.2,21.5c-0.1-0.1-0.1-0.2-0.2-0.3C272.1,21.3,272.2,21.4,272.2,21.5"/>
<path class="st1" d="M269,34.4c0,0,0,0.1,0,0.1C269,34.4,269,34.4,269,34.4"/>
<path class="st1" d="M268.8,33.9C268.8,34,268.8,34,268.8,33.9C268.8,34,268.8,34,268.8,33.9"/>
<path class="st1" d="M269.2,34.8C269.2,34.8,269.2,34.8,269.2,34.8C269.2,34.8,269.2,34.8,269.2,34.8"/>
<path class="st1" d="M268.8,33.5c0,0,0,0.1,0,0.1C268.8,33.5,268.8,33.5,268.8,33.5"/>
<path class="st1" d="M269.6,35.2C269.5,35.2,269.5,35.2,269.6,35.2C269.5,35.2,269.5,35.2,269.6,35.2"/>
<path class="st1" d="M269.9,30.8C269.9,30.8,269.9,30.9,269.9,30.8C269.9,30.9,269.9,30.8,269.9,30.8"/>
<path class="st1" d="M265,27.2C265,27.2,265,27.2,265,27.2C265,27.2,265,27.2,265,27.2"/>
<path class="st1" d="M265.8,28.5C265.7,28.5,265.7,28.4,265.8,28.5C265.7,28.4,265.7,28.5,265.8,28.5"/>
<path class="st1" d="M269.7,31.1c0,0.1-0.1,0.1-0.1,0.1C269.6,31.2,269.7,31.2,269.7,31.1"/>
<path class="st1" d="M265,26.8c0,0,0-0.1,0-0.1C264.9,26.8,265,26.8,265,26.8"/>
<path class="st1" d="M269.8,31C269.8,31,269.8,31,269.8,31C269.8,31,269.8,31,269.8,31"/>
<path class="st1" d="M285.5,25.3c-0.1,0.1-0.2,0.1-0.3,0.2C285.3,25.4,285.4,25.4,285.5,25.3"/>
<path class="st1" d="M285.9,25.1c0.1-0.1,0.2-0.1,0.3-0.2C286.1,25,286,25.1,285.9,25.1"/>
<path class="st1" d="M287.5,24.4c2.5-0.8,4.4-0.5,4.8-0.4h0C291.9,23.9,290.1,23.6,287.5,24.4c0,0-0.1,0-0.1,0
	C287.5,24.4,287.5,24.4,287.5,24.4"/>
<path class="st1" d="M279.8,38.3c0,0-0.1,0-0.1,0C279.8,38.3,279.8,38.3,279.8,38.3"/>
<path class="st1" d="M281.3,37.4C281.3,37.4,281.4,37.4,281.3,37.4C281.4,37.4,281.3,37.4,281.3,37.4"/>
<path class="st1" d="M280.3,38.2C280.3,38.2,280.2,38.2,280.3,38.2C280.2,38.2,280.3,38.2,280.3,38.2"/>
<path class="st1" d="M280.6,38C280.6,38,280.7,38,280.6,38C280.7,38,280.6,38,280.6,38"/>
<path class="st1" d="M293.4,25.2C293.4,25.2,293.4,25.2,293.4,25.2C293.4,25.2,293.4,25.2,293.4,25.2"/>
<path class="st1" d="M293.6,25.7C293.6,25.7,293.6,25.7,293.6,25.7C293.5,25.7,293.5,25.7,293.6,25.7
	C293.5,25.7,293.6,25.7,293.6,25.7"/>
<path class="st1" d="M293.6,26.1c0,0.1,0,0.1,0,0.2C293.6,26.2,293.6,26.1,293.6,26.1"/>
<path class="st1" d="M293.5,27.3c0.1-0.3,0.1-0.7,0.1-1C293.7,26.6,293.6,27,293.5,27.3"/>
<path class="st1" d="M293.1,24.7C293.1,24.8,293.1,24.8,293.1,24.7C293.1,24.8,293.1,24.8,293.1,24.7"/>
<path class="st1" d="M293.6,25.8c0,0.1,0,0.1,0,0.2C293.6,25.9,293.6,25.9,293.6,25.8"/>
<path class="st1" d="M292.7,24.4C292.7,24.4,292.8,24.4,292.7,24.4C292.8,24.4,292.7,24.4,292.7,24.4"/>
<path class="st1" d="M281,37.7C281,37.7,281,37.7,281,37.7C281,37.7,281,37.7,281,37.7"/>
<path class="st1" d="M286.6,24.8c0.1,0,0.2-0.1,0.3-0.1C286.8,24.7,286.7,24.8,286.6,24.8"/>
<path class="st1" d="M292,29c-0.1,0-0.2,0.1-0.2,0.1C291.8,29,291.9,29,292,29"/>
<path class="st1" d="M291.3,29.2c0.1,0,0.1,0,0.2,0C291.5,29.1,291.4,29.1,291.3,29.2"/>
<path class="st1" d="M288,34.3C288,34.2,288,34.2,288,34.3C288,34.2,288,34.2,288,34.3"/>
<path class="st1" d="M292.7,28.5C292.7,28.5,292.7,28.5,292.7,28.5C292.7,28.5,292.7,28.5,292.7,28.5"/>
<path class="st1" d="M288.2,33.9C288.3,33.9,288.3,33.9,288.2,33.9C288.3,33.9,288.3,33.9,288.2,33.9"/>
<path class="st1" d="M293,28.2C293,28.2,293,28.2,293,28.2C293,28.2,293,28.2,293,28.2"/>
<path class="st1" d="M292.2,28.8c0,0,0.1-0.1,0.1-0.1C292.3,28.8,292.3,28.8,292.2,28.8"/>
<polyline class="st1" points="288.4,30.1 288.4,30.1 288.4,30.1 "/>
<path class="st1" d="M281.9,35c0,0,0-0.1,0-0.1C281.9,34.9,281.9,34.9,281.9,35"/>
<path class="st1" d="M287.2,34.7C287.2,34.7,287.2,34.7,287.2,34.7C287.2,34.7,287.2,34.7,287.2,34.7"/>
<path class="st1" d="M281.9,34.7C281.9,34.7,281.9,34.7,281.9,34.7C281.9,34.7,281.9,34.7,281.9,34.7"/>
<path class="st1" d="M287.5,34.5C287.6,34.5,287.6,34.5,287.5,34.5C287.6,34.5,287.6,34.5,287.5,34.5"/>
<path class="st1" d="M286.8,34.9c0,0-0.1,0-0.1,0C286.7,34.9,286.7,34.9,286.8,34.9"/>
<path class="st1" d="M288.5,30.6C288.5,30.6,288.5,30.6,288.5,30.6C288.5,30.6,288.5,30.6,288.5,30.6"/>
<polyline class="st1" points="281.9,34.5 281.9,34.5 281.9,34.5 "/>
<path class="st2" d="M272.6,46.3c-0.2-0.1-0.5-0.2-0.8-0.3C272.1,46.1,272.3,46.2,272.6,46.3"/>
<path class="st2" d="M272.7,46.4c0.2,0.1,0.5,0.2,0.7,0.3C273.2,46.5,273,46.4,272.7,46.4"/>
<path class="st2" d="M274.2,47c-0.2-0.1-0.4-0.2-0.7-0.3C273.8,46.8,274,46.9,274.2,47"/>
<path class="st2" d="M275.6,47.9c-0.2-0.1-0.4-0.3-0.6-0.4C275.2,47.6,275.4,47.8,275.6,47.9"/>
<path class="st2" d="M276.2,48.4c-0.2-0.2-0.4-0.3-0.6-0.4C275.9,48.1,276,48.3,276.2,48.4"/>
<path class="st2" d="M274.9,47.4c-0.2-0.1-0.4-0.3-0.7-0.4C274.5,47.2,274.7,47.3,274.9,47.4"/>
<path class="st2" d="M276.8,48.9c-0.2-0.2-0.4-0.3-0.5-0.5C276.5,48.6,276.6,48.8,276.8,48.9"/>
<path class="st3" d="M270.7,35.9c-1.2-0.4-2.1-1.6-1.9-2.9c0.1-0.7,0.4-1.3,0.8-1.8c0.4-0.4,0.5-1,0.2-1.5c-0.2-0.3-0.4-0.5-0.7-0.6
	c-0.2-0.1-0.5-0.1-0.7,0c-0.3,0.1-0.6,0.1-1,0.1c-0.2,0-0.4-0.1-0.6-0.1c-1.2-0.4-2.1-1.6-1.9-2.9c0.1-1,0.6-1.8,1.5-2.2
	c0.5-0.2,0.7-0.7,0.7-1.2c-0.1-0.5-0.4-0.9-0.9-1.1c-1.3-0.4-2.1-1.6-2-2.9c0.1-1.5,1.4-2.6,2.9-2.5c0.4,0.2,2.2,0.9,3.8,3
	c2.5,3.2,3.7,8.1,3.4,14.2c0,0.7-0.3,1.3-0.9,1.8c-0.6,0.5-1.3,0.8-2.1,0.7C271.1,36,270.9,36,270.7,35.9 M276.9,60.9
	C276.9,60.9,276.9,60.9,276.9,60.9C276.9,60.9,276.9,60.9,276.9,60.9l-12.6,9.6l-2.1-6.2l2,0.6c0.6,0.2,1.3-0.2,1.5-0.8
	c0.2-0.7-0.2-1.3-0.8-1.5l-3.7-1.1l-1.5-4.4l4.2,1.3c0.7,0.2,1.3-0.2,1.5-0.8c0.2-0.7-0.2-1.3-0.8-1.5l-5.8-1.8
	c-0.1-1-0.1-2.1,0.2-3c0.1-0.3,0.2-0.5,0.3-0.8l5.2,1.6c0.7,0.2,1.3-0.2,1.5-0.8c0.2-0.7-0.2-1.3-0.8-1.5l-4.5-1.4
	c2.4-2.5,6.7-3.5,10.9-2.2c5.6,1.7,9,6.8,7.6,11.3C279,58.7,278.1,59.9,276.9,60.9 M290,29.1c-0.5-0.2-1,0-1.3,0.4
	c-0.3,0.4-0.4,0.9-0.1,1.4c0.5,0.8,0.5,1.8,0,2.7c-0.6,1.1-2,1.7-3.2,1.3c-0.2-0.1-0.4-0.1-0.5-0.2c-0.3-0.2-0.5-0.4-0.8-0.6
	c-0.4-0.4-1-0.6-1.5-0.3c-0.5,0.3-0.8,0.8-0.7,1.4c0.1,0.7,0,1.3-0.3,1.9c-0.6,1.1-2,1.7-3.2,1.3c-0.2-0.1-0.4-0.1-0.5-0.2
	c-0.7-0.4-1.2-1-1.4-1.7c-0.2-0.7-0.1-1.4,0.3-2c3.1-5.2,6.9-8.6,10.8-9.9c2.5-0.8,4.4-0.5,4.8-0.4c0.6,0.4,1,0.9,1.2,1.6
	c0.2,0.7,0.1,1.5-0.2,2.1C292.7,28.9,291.3,29.5,290,29.1 M295.9,25c-0.4-1.3-1.3-2.5-2.5-3.1c-0.1,0-0.2-0.1-0.2-0.1
	c-0.4-0.1-8.5-2.4-16.5,8.2c-0.6-13.3-8.7-15.9-9.1-16c0,0-0.2,0-0.3-0.1c-2.9-0.2-5.4,1.9-5.7,4.8c-0.2,1.8,0.6,3.4,1.9,4.5
	c-0.7,0.8-1.1,1.8-1.2,2.9c-0.2,2.4,1.3,4.7,3.7,5.4c0.1,0,0.3,0.1,0.4,0.1c-0.1,0.4-0.2,0.8-0.2,1.2c-0.2,2.4,1.3,4.7,3.7,5.4
	c0.4,0.1,0.7,0.2,1.1,0.2c0.6,0.1,1.2,0,1.8-0.2l-1.5,5.1c-6.5-1.4-12.8,1.6-14.5,7c-0.6,1.9-0.5,3.9,0.1,5.8c0,0,0,0,0,0
	c0,0,0,0,0,0l5.5,16.2L262,74c-0.2,0.7,0.2,1.3,0.8,1.5c0.6,0.2,1.3-0.2,1.5-0.8l0.5-1.5l13.6-10.4c0,0,0,0,0,0c0,0,0,0,0,0
	c1.6-1.3,2.7-2.9,3.3-4.8c1.7-5.5-1.9-11.5-8.1-13.9l1.5-5.1c0.4,0.5,0.9,0.9,1.4,1.2c0.3,0.2,0.7,0.3,1,0.4
	c2.3,0.7,4.9-0.3,6.1-2.5c0.2-0.4,0.4-0.7,0.5-1.1c0.1,0,0.2,0.1,0.4,0.1c2.3,0.7,4.9-0.3,6.1-2.5c0.5-1,0.7-2,0.6-3.1
	c1.7-0.2,3.3-1.1,4.1-2.7C296.1,27.8,296.3,26.3,295.9,25"/>
<path class="st4" d="M215.3,55.8C215.3,55.7,215.3,55.7,215.3,55.8C215.2,55.7,215.2,55.7,215.3,55.8
	C215.2,55.7,215.2,55.7,215.3,55.8"/>
<path class="st1" d="M194,54C194,54,194,54,194,54C194,54,194,54,194,54"/>
<path class="st1" d="M192.6,51.5c0,0,0-0.1,0-0.1C192.6,51.4,192.6,51.5,192.6,51.5"/>
<path class="st1" d="M192.5,50.9c0,0,0-0.1,0-0.1C192.5,50.8,192.5,50.8,192.5,50.9"/>
<path class="st1" d="M208.9,36.3c0.1,0,0.2,0.1,0.3,0.1C209.1,36.3,209,36.3,208.9,36.3"/>
<path class="st1" d="M192.6,51.2c0,0,0-0.1,0-0.1C192.5,51.1,192.5,51.2,192.6,51.2"/>
<path class="st1" d="M208.5,36.2c0.1,0,0.2,0,0.3,0.1C208.7,36.2,208.6,36.2,208.5,36.2"/>
<path class="st1" d="M210.3,37.3c-0.1-0.2-0.3-0.3-0.5-0.5C210,36.9,210.2,37.1,210.3,37.3"/>
<path class="st1" d="M210.3,37.3c0.1,0.1,0.1,0.2,0.2,0.3C210.5,37.5,210.4,37.4,210.3,37.3"/>
<path class="st1" d="M209.5,36.6c0.1,0.1,0.2,0.1,0.3,0.2C209.7,36.7,209.6,36.6,209.5,36.6"/>
<path class="st1" d="M209.2,36.4c0.1,0,0.2,0.1,0.3,0.2C209.4,36.5,209.3,36.4,209.2,36.4"/>
<path class="st1" d="M208.1,36.2c0.1,0,0.2,0,0.3,0C208.3,36.2,208.2,36.2,208.1,36.2"/>
<polyline class="st1" points="194.5,54.5 194.5,54.5 194.5,54.5 "/>
<path class="st1" d="M193.6,53.6C193.6,53.6,193.6,53.5,193.6,53.6C193.6,53.5,193.6,53.6,193.6,53.6"/>
<path class="st1" d="M193.8,53.8C193.8,53.8,193.8,53.8,193.8,53.8C193.8,53.8,193.8,53.8,193.8,53.8"/>
<path class="st1" d="M193.4,53.3C193.4,53.3,193.4,53.3,193.4,53.3C193.4,53.3,193.4,53.3,193.4,53.3"/>
<path class="st1" d="M194.3,54.3C194.2,54.3,194.2,54.2,194.3,54.3C194.2,54.2,194.2,54.3,194.3,54.3"/>
<path class="st1" d="M192.9,52.4C192.9,52.4,192.9,52.4,192.9,52.4C192.9,52.4,192.9,52.4,192.9,52.4"/>
<path class="st1" d="M193.2,53.1C193.2,53,193.2,53,193.2,53.1C193.2,53,193.2,53,193.2,53.1"/>
<path class="st1" d="M192.8,52.1c0,0,0-0.1,0-0.1C192.8,52.1,192.8,52.1,192.8,52.1"/>
<path class="st1" d="M192.7,51.8c0,0,0-0.1,0-0.1C192.7,51.7,192.7,51.8,192.7,51.8"/>
<line class="st1" x1="193" y1="52.7" x2="193" y2="52.7"/>
<path class="st5" d="M206.3,54.1c0.1,0,0.2-0.1,0.4-0.1v4.2c-0.7-1.2-1.5-2.2-2.1-2.9C205,54.7,205.6,54.3,206.3,54.1 M207.5,48.2
	c-0.4,0-0.8,0.3-0.8,0.8v3.4c-0.3,0-0.6,0.1-0.8,0.2c-0.9,0.3-1.7,0.8-2.4,1.5c-1.2-1.2-2.1-1.6-2.1-1.7c-0.4-0.2-0.8,0-1,0.3
	c-0.2,0.4,0,0.8,0.3,1c0,0,3.1,1.7,6.1,7.7c0.1,0.3,0.4,0.4,0.7,0.4c0.1,0,0.1,0,0.2,0c0.3-0.1,0.6-0.4,0.6-0.7V49
	C208.2,48.6,207.9,48.2,207.5,48.2"/>
<path class="st5" d="M211.4,60v-4.9c1.1,0.1,2.1,0.7,2.7,1.6C212.9,57.8,212,59,211.4,60 M216.3,55.1c-0.4,0.2-0.7,0.5-1,0.7
	c-0.9-1.3-2.3-2.1-3.9-2.2v-2.1c0-0.4-0.3-0.8-0.8-0.8s-0.8,0.3-0.8,0.8v11.9c0,0.4,0.3,0.7,0.7,0.8c0,0,0.1,0,0.1,0
	c0.3,0,0.6-0.2,0.7-0.6c0,0,1.4-4.5,5.7-7.2c0.4-0.2,0.5-0.7,0.2-1.1S216.6,54.8,216.3,55.1"/>
<path class="st5" d="M224,53c0.3,0.2,0.5,0.6,0.5,1c0,0.7-0.6,1.3-1.3,1.3c0,0-0.1,0-0.1,0c-0.3,0-0.5,0.1-0.7,0.3
	c-0.2,0.2-0.2,0.5-0.1,0.8c0.1,0.3,0.2,0.6,0.2,1c0,1.4-1.1,2.5-2.6,2.5c-0.4,0-0.8-0.1-1.3-0.4c0.5-0.3,0.9-0.5,0.9-0.5
	c0.4-0.1,0.6-0.6,0.5-1c-0.1-0.4-0.6-0.6-1-0.5c-0.2,0.1-3.9,1.4-5.9,6.7c-1.4,4.4-0.8,9.5-1.1,11.1h-5.2c0-0.9-0.2-9.4-0.8-11.2
	c-0.8-2.6-2.5-6.2-6.5-9.1c-0.3-0.2-0.8-0.2-1.1,0.2c-0.3,0.3-0.2,0.8,0.2,1.1c0.5,0.4,0.9,0.7,1.4,1.1c-0.5,0.4-1.1,0.6-1.7,0.6
	c-1.4,0-2.7-1.1-2.8-2.6c0-0.3-0.2-0.5-0.4-0.6c-1.6-0.9-2.6-2.6-2.6-4.4c0-2.4,1.7-4.5,4.2-5c0.3-0.1,0.6-0.3,0.6-0.6
	c0.4-1.7,1.9-3,3.6-3l0,0c0.2,0,0.4-0.1,0.6-0.2c0.1-0.2,0.2-0.4,0.2-0.6c0-0.1,0-0.1,0-0.1c0-1,0.8-1.8,1.9-1.8
	c0.2,0,0.5,0,0.7,0.1c0.2,0.1,0.5,0.1,0.7,0c0.2-0.1,0.3-0.3,0.4-0.6c0.2-1.4,1.4-2.4,2.8-2.4c1.3,0,2.5,1,2.7,2.3
	c0,0.2,0.2,0.4,0.4,0.5c0.2,0.1,0.4,0.1,0.6,0.1c0.4-0.1,0.9-0.2,1.3-0.2c2.6,0,4.7,2.1,4.7,4.7c0,0.2,0,0.4,0,0.6
	c0,0.3,0.1,0.6,0.3,0.7c0.2,0.2,0.5,0.2,0.8,0c0.2-0.1,0.4-0.1,0.6-0.1c0.7,0,1.3,0.6,1.3,1.3l0,0c0,0.2,0.1,0.5,0.3,0.6
	c0.2,0.2,0.4,0.2,0.6,0.2c0.2,0,0.3,0,0.5,0c1.5,0,2.8,1.3,2.8,2.8c0,0.8-0.4,1.6-1,2.2c-0.2,0.1-0.3,0.4-0.3,0.6
	C223.7,52.7,223.8,52.9,224,53 M226.6,49.7c0-2.4-1.9-4.3-4.3-4.3c-0.3-1.2-1.4-2-2.7-2c0,0-0.1,0-0.1,0c-0.1-3.3-2.9-6-6.3-6
	c-0.3,0-0.7,0-1,0.1c-0.6-1.6-2.2-2.8-4-2.8c-1.9,0-3.5,1.2-4.1,3c-0.1,0-0.3,0-0.4,0c-1.7,0-3.1,1.2-3.4,2.9
	c-2,0.3-3.7,1.7-4.3,3.6c-2.9,0.7-4.9,3.3-4.9,6.4c0,2.3,1.2,4.4,3.1,5.6c0.4,2,2.2,3.6,4.3,3.6c1,0,2-0.4,2.8-1
	c1.6,1.7,2.7,3.7,3.4,6c0.8,2.5,0.7,11.5,0.7,11.5c0,0.2,0.1,0.4,0.2,0.6c0.1,0.2,0.3,0.2,0.6,0.2h6.6c0.4,0,0.7-0.3,0.8-0.7
	c0.2-1.4,0.5-9.8,0.9-11c0.6-1.7,1.4-3.1,2.5-4.3c0.2-0.2,0.3-0.4,0.5-0.5c0.8,0.7,1.6,1,2.6,1c2.3,0,4.1-1.8,4.1-4.1
	c0-0.2,0-0.4,0-0.6c1.2-0.3,2.1-1.4,2.1-2.7c0-0.5-0.2-1.1-0.5-1.5C226.2,51.7,226.6,50.7,226.6,49.7"/>
<path class="st6" d="M87.2,44.1V43c0.3-0.1,0.5-0.1,0.8-0.1c1.4,0,2.6,1.2,2.6,2.6v3.8c-0.2,0-0.4,0-0.6,0c-0.2,0-0.4,0-0.5,0v-2.8
	C89.2,43.9,87.2,44.1,87.2,44.1 M86.6,70.9c-0.2-0.7-0.4-1.5-0.6-2.4c-0.4-1.7-0.9-3.6-1.5-5.6c-1.5-4.6-1.6-7.8-0.2-9.8
	c1-1.5,3-2.2,5.7-2.2c2.7,0,4.6,0.7,5.7,2.2c1.4,2,1.3,5.2-0.2,9.8c-0.7,2-1.1,3.9-1.5,5.6c-1.1,4.5-1.7,6.9-4,6.9
	C88.4,75.3,87.5,74.2,86.6,70.9 M86,75.2L86,75.2c-2.5,0.3-3.5-2.2-5.1-7c-0.4-1.3-0.9-2.6-1.4-4c-1.9-4.8-2.3-8.2-1.1-10.2
	c1-1.6,3-2.1,4.8-2.3c0.1,0,0.3,0,0.4,0c-0.1,0.1-0.3,0.3-0.4,0.5c-1.7,2.4-1.7,6.1,0,11.2c0.6,1.9,1.1,3.8,1.5,5.5
	c0.2,0.9,0.4,1.7,0.6,2.4c0.4,1.4,0.8,2.8,1.5,3.8C86.4,75.2,86.2,75.2,86,75.2 M99.1,68.2c-1.7,4.8-2.7,7.3-5.1,7
	c-0.2,0-0.5-0.1-0.7-0.2c0.2-0.2,0.3-0.5,0.4-0.7c0.7-1.4,1.2-3.3,1.7-5.5c0.4-1.7,0.9-3.6,1.5-5.5c1.7-5,1.7-8.8,0-11.2
	c-0.1-0.2-0.2-0.3-0.4-0.5c0.1,0,0.2,0,0.4,0c1.8,0.2,3.8,0.7,4.8,2.3c1.2,2,0.8,5.4-1.1,10.2C100,65.6,99.5,67,99.1,68.2 M103,53.3
	c-1.3-2.2-3.8-2.8-5.9-3.1c-1-0.1-1.7-0.2-2.6,0c-0.7-0.3-1.5-0.6-2.4-0.7v-4c0-2.3-1.9-4.1-4.1-4.1c-0.7,0-1.4,0.2-2,0.5
	c-0.2,0.1-0.4,0.4-0.4,0.7v2.7c0,0.3,0.1,0.5,0.4,0.7c0.2,0.1,0.5,0.1,0.8,0c0.6-0.3,0.9-0.3,0.9-0.3c0.1,0.1,0.2,0.5,0.2,0.9
	c0,0,0,0,0,0.1v3c-0.9,0.1-1.7,0.4-2.4,0.7c-0.9-0.1-1.6-0.1-2.6,0c-2,0.3-4.6,0.8-5.9,3.1c-1.4,2.4-1.1,6.2,1,11.5
	c0.5,1.4,1,2.6,1.4,3.9c0.8,2.3,1.5,4.4,2.5,5.8c1,1.5,2.2,2.3,3.7,2.3c0.2,0,0.4,0,0.6,0l0,0c0.6-0.1,1.1-0.2,1.6-0.5
	c0.6,0.4,1.3,0.6,2.1,0.6c0.8,0,1.5-0.2,2.1-0.6c0.5,0.3,1.1,0.4,1.6,0.5l0,0c0.2,0,0.4,0,0.6,0c1.5,0,2.7-0.7,3.7-2.3
	c0.9-1.4,1.6-3.5,2.5-5.8c0.4-1.3,0.9-2.5,1.4-3.9C104.1,59.5,104.4,55.7,103,53.3"/>
<path class="st7" d="M154.8,46c-1.5-0.2-3.1-0.2-4.6,0.1c-1.3,0.3-2.5,0.7-3.6,1.2c-1.5-2.4-4-3.5-7.3-3.3c-0.3,0-0.6,0.1-0.9,0.1
	c2-1.5,4.3-2.5,6.8-3c3.7-0.7,7.2-0.3,10.4,1.3C154.9,43.7,154.9,44.7,154.8,46 M161.1,44c1.8,1.4,3,4.3,3.5,8.3
	c-0.5,0-0.9,0.1-1.4,0.2c-2.4,0.5-4.6,1.6-6.4,3.3c-1.3,1.3-2.4,2.8-3,4.4c-1.3-1.2-2.9-2.1-4.6-2.7c-0.9-2-2.6-4.3-5-5.9
	c1.6-1.9,3.7-3,6.4-3.5c1.7-0.3,3.3-0.3,5,0.1c0.3,0.1,0.6,0,0.8-0.2c0.2-0.2,0.4-0.4,0.4-0.7c0-0.4,0-0.7,0-1
	c0.1-1.5,0.1-2.3,0.8-3.4C158.3,42.9,159.7,42.9,161.1,44 M135.2,46.9C135.2,46.9,135.2,46.9,135.2,46.9
	C135.3,46.9,135.3,46.9,135.2,46.9c0.1,0,6.9-2.9,9.6,1.4c-0.9,0.6-1.7,1.4-2.4,2.3c-0.7-0.3-1.4-0.6-2.1-0.8
	c-2.1-0.6-5.3-0.8-8.7,1.1l0-1C131.9,48.7,134,47.5,135.2,46.9 M156.4,72.8C156.3,72.9,156.3,72.9,156.4,72.8
	c-1.4,0.6-2.9,1.1-4.7,1.4c-1.6,0.3-3.6,0.6-5.7,0.6c-0.7-0.4-2.7-1.9-4.5-4.3c-0.2-0.3-0.4-0.6-0.6-0.8c1.4-1,3.7-3.3,3.3-8
	c0-0.5-0.5-0.9-1.1-0.9c-0.5,0.1-0.9,0.5-0.9,1.1c0.3,3.6-1.3,5.4-2.3,6.1c-1.3-2.9-1.3-6-0.1-9.1c0.2-0.5,0-1.1-0.5-1.3
	c-0.5-0.2-1.1,0-1.3,0.5c-0.6,1.3-0.9,2.7-1,4c-0.9-0.9-1.9-2.4-1.2-4.7c0.2-0.5-0.1-1.1-0.7-1.2c-0.5-0.2-1.1,0.1-1.2,0.7
	c-0.9,2.9,0.2,4.9,1.2,6.2c0.7,0.8,1.4,1.3,1.9,1.6c0.2,2.5,1.2,4.9,2.9,7.1c0.8,1.1,1.7,2.1,2.5,2.8c-1.6-0.3-3.1-0.8-4.6-1.6
	c-4.7-2.7-7.9-8.3-9.7-17.1c2-1.4,2.8-2,3.2-2.4c2.7-2,5.6-2.6,8.4-1.8c3.9,1.1,6.7,4.4,7.7,7c0.1,0.3,0.4,0.5,0.6,0.6
	c2.1,0.6,3.9,1.8,5.4,3.3C153.5,62.6,158.3,67.1,156.4,72.8 M163.4,57.6c-0.1-0.5-0.7-0.8-1.2-0.7c-0.5,0.1-0.8,0.7-0.7,1.2
	c0.3,1.2,0.5,2.4,0.6,3.5c-0.2,0-0.5,0.1-0.7,0c-0.4-0.2-0.8-0.6-1.1-1.4c-0.2-0.5-0.8-0.8-1.3-0.6c-0.5,0.2-0.8,0.8-0.6,1.3
	c0.5,1.3,1.3,2.2,2.3,2.5c0.5,0.2,1,0.2,1.5,0.2c0,3.4-0.9,5.9-1.2,6.5c-0.7,0.6-1.5,1.1-2.4,1.6c0.9-5-2.1-8.8-3.3-10.1
	c1.2-3.8,4.4-6.6,8.3-7.3c1-0.2,1.9-0.2,2.9-0.1c0.4,3.2,0.4,8.4-2.6,12.8C164.3,64.7,164.4,61.4,163.4,57.6 M166.6,52.1
	c-0.6-4.6-2-7.9-4.3-9.7c-1.5-1.2-3.2-1.7-5.1-1.5c-3.8-2-8-2.6-12.4-1.8c-4.1,0.8-7.8,2.9-10.6,6.1c-0.9,0.4-4.2,2-4.6,4.4
	c0,0.1,0,0.1,0,0.2l0,2.5c-0.6,0.5-1.9,1.4-3.1,2.3c-0.3,0.2-0.5,0.6-0.4,1c1.9,9.7,5.4,16,10.7,19.1c5.2,3,11.1,2.3,15.2,1.5
	c6.6-1.3,11.3-4.2,14-8.8c2.3-3.9,3.1-8.7,2.3-14.1C168.2,52.6,167.7,52.3,166.6,52.1"/>
<path class="st8" d="M299.4,124h14.1v-7.3h-2.3v5.4h-6.6v-14.8h2.5v-1.9h-7.6v1.9h2.5v14.8h-2.5V124z M272.2,115.2
	c0.2-0.7,0.5-1.7,0.9-3c0.4-1.3,0.9-2.9,1.6-4.9h1.2c0.7,2,1.2,3.6,1.6,4.9c0.4,1.3,0.7,2.3,0.9,3H272.2z M270.8,105.4v1.9h1.6
	c-0.4,1.2-0.8,2.4-1.2,3.6c-0.4,1.3-0.8,2.5-1.3,3.8c-0.4,1.3-0.8,2.5-1.2,3.8c-0.4,1.2-0.7,2.4-1,3.6h-2.2v1.9h7.3v-1.9h-2.4
	l1.4-4.9h7.2l1.4,4.9h-2.4v1.9h7.3v-1.9h-2.2c-0.3-1.1-0.6-2.2-1-3.4c-0.4-1.2-0.8-2.4-1.2-3.6c-0.1-0.4-0.4-1.3-0.8-2.6
	c-0.4-1.3-1-3-1.7-5.2h1.6v-1.9H270.8z M235.1,124h15.6v-5.3h-2.1v3.4h-8.5v-6.6h5.8v1.9h1.6v-5.8H246v1.8h-5.8v-6.1h8.5v3.3h2.1
	v-5.2h-15.6v1.9h2.5v14.8h-2.5V124z M198.6,122.1h-2.4v1.9h6.7v-1.9h-2.1v-14.6l6.6,16.5h0.7l6.7-16.5v14.6h-2.1v1.9h6.9v-1.9h-2.4
	v-14.8h2.4v-1.9h-6.3l-5.4,13.5l-2.7-6.8l-2.7-6.7h-6.2v1.9h2.4V122.1z M148.8,124h8.2v-1.9h-2.8v-14.8h4.2v2.8h2.1v-4.7h-15.3v4.7
	h2.1v-2.8h4.3v14.8h-2.8V124z M112.8,124h7.4v-1.9h-2.3l3.8-5.7l3.8,5.7h-2.2v1.9h7.6v-1.9h-2.5l-5.3-7.7l4.9-7.1h2.4v-1.9h-7.2v1.9
	h2.3l-3.6,5.3l-3.6-5.3h2.2v-1.9H113v1.9h2.5l5,7.3l-5,7.5h-2.6V124z M81.9,124h15.6v-5.3h-2.1v3.4H87v-6.6h5.8v1.9h1.6v-5.8h-1.6
	v1.8H87v-6.1h8.5v3.3h2.1v-5.2H81.9v1.9h2.5v14.8h-2.5V124z M47,124h7.6v-1.9h-2.7v-14.2l9.3,16.1h2.9v-16.7h2.8v-1.9h-7.6v1.9H62
	v13.3l-8.8-15.2H47v1.9h2.7v14.8H47V124z"/>
<line class="st9" x1="180.2" y1="98" x2="180.2" y2="131"/>
</svg>
